<svg width="98" height="36" viewBox="0 0 98 36" fill="none" xmlns="http://www.w3.org/2000/svg">
<path d="M2.28 26C2.104 26 1.96 25.944 1.848 25.832C1.736 25.72 1.68 25.576 1.68 25.4V9.8C1.68 9.624 1.736 9.48 1.848 9.368C1.96 9.256 2.104 9.2 2.28 9.2H13.488C13.664 9.2 13.808 9.256 13.92 9.368C14.032 9.48 14.088 9.624 14.088 9.8V12.056C14.088 12.232 14.032 12.376 13.92 12.488C13.808 12.6 13.664 12.656 13.488 12.656H5.832V15.896H12.96C13.136 15.896 13.28 15.96 13.392 16.088C13.504 16.2 13.56 16.344 13.56 16.52V18.608C13.56 18.768 13.504 18.912 13.392 19.04C13.28 19.152 13.136 19.208 12.96 19.208H5.832V22.544H13.68C13.856 22.544 14 22.6 14.112 22.712C14.224 22.824 14.28 22.968 14.28 23.144V25.4C14.28 25.576 14.224 25.72 14.112 25.832C14 25.944 13.856 26 13.68 26H2.28ZM21.3298 26.24C20.5618 26.24 19.8658 26.12 19.2418 25.88C18.6338 25.624 18.1058 25.256 17.6578 24.776C17.2258 24.28 16.8898 23.688 16.6498 23C16.4098 22.296 16.2738 21.496 16.2418 20.6C16.2258 20.28 16.2178 20 16.2178 19.76C16.2178 19.504 16.2258 19.224 16.2418 18.92C16.2738 18.056 16.4098 17.28 16.6498 16.592C16.8898 15.904 17.2258 15.312 17.6578 14.816C18.0898 14.32 18.6178 13.944 19.2418 13.688C19.8658 13.416 20.5618 13.28 21.3298 13.28C22.1298 13.28 22.8178 13.416 23.3938 13.688C23.9698 13.944 24.4578 14.28 24.8578 14.696V9.56C24.8578 9.384 24.9138 9.24 25.0258 9.128C25.1378 9.016 25.2818 8.96 25.4578 8.96H28.3858C28.5458 8.96 28.6818 9.016 28.7938 9.128C28.9218 9.24 28.9858 9.384 28.9858 9.56V25.4C28.9858 25.576 28.9218 25.72 28.7938 25.832C28.6818 25.944 28.5458 26 28.3858 26H25.6738C25.4978 26 25.3538 25.944 25.2418 25.832C25.1298 25.72 25.0738 25.576 25.0738 25.4V24.632C24.6898 25.096 24.1938 25.48 23.5858 25.784C22.9778 26.088 22.2258 26.24 21.3298 26.24ZM22.6258 23.024C23.1698 23.024 23.5938 22.912 23.8978 22.688C24.2178 22.448 24.4498 22.144 24.5938 21.776C24.7538 21.408 24.8418 21.008 24.8578 20.576C24.8738 20.256 24.8818 19.952 24.8818 19.664C24.8818 19.376 24.8738 19.08 24.8578 18.776C24.8418 18.376 24.7538 18.008 24.5938 17.672C24.4338 17.32 24.1938 17.04 23.8738 16.832C23.5538 16.608 23.1378 16.496 22.6258 16.496C22.0978 16.496 21.6738 16.608 21.3538 16.832C21.0498 17.056 20.8338 17.36 20.7058 17.744C20.5778 18.128 20.4978 18.552 20.4658 19.016C20.4178 19.512 20.4178 20.008 20.4658 20.504C20.4978 20.968 20.5778 21.392 20.7058 21.776C20.8338 22.16 21.0498 22.464 21.3538 22.688C21.6738 22.912 22.0978 23.024 22.6258 23.024ZM32.7264 26C32.5664 26 32.4304 25.952 32.3184 25.856C32.2224 25.744 32.1744 25.608 32.1744 25.448V14.072C32.1744 13.912 32.2224 13.784 32.3184 13.688C32.4304 13.576 32.5664 13.52 32.7264 13.52H33.8544C34.0144 13.52 34.1424 13.576 34.2384 13.688C34.3504 13.784 34.4064 13.912 34.4064 14.072V15.128C34.8224 14.584 35.3424 14.144 35.9664 13.808C36.6064 13.456 37.4224 13.28 38.4144 13.28C39.4544 13.28 40.3344 13.512 41.0544 13.976C41.7904 14.424 42.3424 15.056 42.7104 15.872C43.0784 16.672 43.2624 17.608 43.2624 18.68V25.448C43.2624 25.608 43.2144 25.744 43.1184 25.856C43.0224 25.952 42.8944 26 42.7344 26H41.5344C41.3744 26 41.2384 25.952 41.1264 25.856C41.0304 25.744 40.9824 25.608 40.9824 25.448V18.8C40.9824 17.68 40.7104 16.808 40.1664 16.184C39.6224 15.544 38.8224 15.224 37.7664 15.224C36.7744 15.224 35.9744 15.544 35.3664 16.184C34.7744 16.808 34.4784 17.68 34.4784 18.8V25.448C34.4784 25.608 34.4224 25.744 34.3104 25.856C34.2144 25.952 34.0864 26 33.9264 26H32.7264ZM51.8411 26.24C50.6251 26.24 49.6091 26.008 48.7931 25.544C47.9771 25.08 47.3531 24.44 46.9211 23.624C46.4891 22.792 46.2491 21.848 46.2011 20.792C46.1851 20.52 46.1771 20.176 46.1771 19.76C46.1771 19.328 46.1851 18.984 46.2011 18.728C46.2491 17.656 46.4891 16.712 46.9211 15.896C47.3691 15.08 48.0011 14.44 48.8171 13.976C49.6331 13.512 50.6411 13.28 51.8411 13.28C53.0411 13.28 54.0491 13.512 54.8651 13.976C55.6811 14.44 56.3051 15.08 56.7371 15.896C57.1851 16.712 57.4331 17.656 57.4811 18.728C57.4971 18.984 57.5051 19.328 57.5051 19.76C57.5051 20.176 57.4971 20.52 57.4811 20.792C57.4331 21.848 57.1931 22.792 56.7611 23.624C56.3291 24.44 55.7051 25.08 54.8891 25.544C54.0731 26.008 53.0571 26.24 51.8411 26.24ZM51.8411 24.392C52.8331 24.392 53.6251 24.08 54.2171 23.456C54.8091 22.816 55.1291 21.888 55.1771 20.672C55.1931 20.432 55.2011 20.128 55.2011 19.76C55.2011 19.392 55.1931 19.088 55.1771 18.848C55.1291 17.632 54.8091 16.712 54.2171 16.088C53.6251 15.448 52.8331 15.128 51.8411 15.128C50.8491 15.128 50.0491 15.448 49.4411 16.088C48.8491 16.712 48.5371 17.632 48.5051 18.848C48.4891 19.088 48.4811 19.392 48.4811 19.76C48.4811 20.128 48.4891 20.432 48.5051 20.672C48.5371 21.888 48.8491 22.816 49.4411 23.456C50.0491 24.08 50.8491 24.392 51.8411 24.392ZM65.4784 26.24C63.8304 26.24 62.5184 25.736 61.5424 24.728C60.5664 23.704 60.0304 22.312 59.9344 20.552C59.9184 20.344 59.9104 20.08 59.9104 19.76C59.9104 19.424 59.9184 19.152 59.9344 18.944C59.9984 17.808 60.2624 16.816 60.7264 15.968C61.1904 15.104 61.8224 14.44 62.6224 13.976C63.4384 13.512 64.3904 13.28 65.4784 13.28C66.6944 13.28 67.7104 13.536 68.5264 14.048C69.3584 14.56 69.9904 15.288 70.4224 16.232C70.8544 17.176 71.0704 18.28 71.0704 19.544V19.952C71.0704 20.128 71.0144 20.264 70.9024 20.36C70.8064 20.456 70.6784 20.504 70.5184 20.504H62.2144C62.2144 20.52 62.2144 20.552 62.2144 20.6C62.2144 20.648 62.2144 20.688 62.2144 20.72C62.2464 21.376 62.3904 21.992 62.6464 22.568C62.9024 23.128 63.2704 23.584 63.7504 23.936C64.2304 24.288 64.8064 24.464 65.4784 24.464C66.0544 24.464 66.5344 24.376 66.9184 24.2C67.3024 24.024 67.6144 23.832 67.8544 23.624C68.0944 23.4 68.2544 23.232 68.3344 23.12C68.4784 22.912 68.5904 22.792 68.6704 22.76C68.7504 22.712 68.8784 22.688 69.0544 22.688H70.2064C70.3664 22.688 70.4944 22.736 70.5904 22.832C70.7024 22.912 70.7504 23.032 70.7344 23.192C70.7184 23.432 70.5904 23.728 70.3504 24.08C70.1104 24.416 69.7664 24.752 69.3184 25.088C68.8704 25.424 68.3264 25.704 67.6864 25.928C67.0464 26.136 66.3104 26.24 65.4784 26.24ZM62.2144 18.848H68.7904V18.776C68.7904 18.056 68.6544 17.416 68.3824 16.856C68.1264 16.296 67.7504 15.856 67.2544 15.536C66.7584 15.2 66.1664 15.032 65.4784 15.032C64.7904 15.032 64.1984 15.2 63.7024 15.536C63.2224 15.856 62.8544 16.296 62.5984 16.856C62.3424 17.416 62.2144 18.056 62.2144 18.776V18.848ZM74.4921 26C74.3321 26 74.1961 25.952 74.0841 25.856C73.9881 25.744 73.9401 25.608 73.9401 25.448V14.096C73.9401 13.936 73.9881 13.8 74.0841 13.688C74.1961 13.576 74.3321 13.52 74.4921 13.52H75.5961C75.7561 13.52 75.8921 13.576 76.0041 13.688C76.1161 13.8 76.1721 13.936 76.1721 14.096V15.152C76.4921 14.608 76.9321 14.2 77.4921 13.928C78.0521 13.656 78.7241 13.52 79.5081 13.52H80.4681C80.6281 13.52 80.7561 13.576 80.8521 13.688C80.9481 13.784 80.9961 13.912 80.9961 14.072V15.056C80.9961 15.216 80.9481 15.344 80.8521 15.44C80.7561 15.536 80.6281 15.584 80.4681 15.584H79.0281C78.1641 15.584 77.4841 15.84 76.9881 16.352C76.4921 16.848 76.2441 17.528 76.2441 18.392V25.448C76.2441 25.608 76.1881 25.744 76.0761 25.856C75.9641 25.952 75.8281 26 75.6681 26H74.4921ZM88.7616 26C88.6016 26 88.4656 25.952 88.3536 25.856C88.2576 25.744 88.2096 25.608 88.2096 25.448V23.72C88.2096 23.56 88.2576 23.432 88.3536 23.336C88.4656 23.224 88.6016 23.168 88.7616 23.168H90.4896C90.6496 23.168 90.7776 23.224 90.8736 23.336C90.9856 23.432 91.0416 23.56 91.0416 23.72V25.448C91.0416 25.608 90.9856 25.744 90.8736 25.856C90.7776 25.952 90.6496 26 90.4896 26H88.7616Z" fill="#24282D"/>
</svg>
