<svg width="108" height="24" fill="none" xmlns="http://www.w3.org/2000/svg"><g clip-path="url(#clip0_1538_13005)"><path d="M65.849 6.156c-1.423 0-2.788.086-3.862 1.06a.912.912 0 00-.908-.912H59.03a.236.236 0 00-.236.237v11.7a.237.237 0 00.236.237h2.723a.236.236 0 00.236-.237v-6.376c0-2.451 1.3-2.9 3.861-2.9h.13a.234.234 0 00.237-.237v-2.33a.235.235 0 00-.236-.238l-.133-.004zM42.518 3.01H41.29c-.5 0-.981.2-1.335.555a1.897 1.897 0 00-.554 1.34v5.348h-7.05V3.244a.234.234 0 00-.236-.237h-1.228a1.897 1.897 0 00-1.884 1.894V18.41a.237.237 0 00.236.237h2.878a.236.236 0 00.236-.237v-5.364h7.048v5.364a.237.237 0 00.236.237h2.881a.236.236 0 00.236-.237V3.247a.238.238 0 00-.145-.219.234.234 0 00-.09-.018m8.225 3.11c-2.086 0-3.678.522-4.736 1.552-1.058 1.03-1.614 2.628-1.614 4.711s.543 3.669 1.614 4.711c1.07 1.043 2.65 1.552 4.736 1.552 4.199 0 6.328-2.107 6.328-6.263s-2.129-6.262-6.328-6.262zm0 9.81c-2.38 0-3.182-.894-3.182-3.547 0-1.355.203-2.201.66-2.747.473-.568 1.276-.827 2.526-.827 2.362 0 3.16.9 3.16 3.57 0 2.652-.797 3.547-3.16 3.547M77.9 7.75c-1.04-1.096-2.61-1.63-4.818-1.63-4.2 0-6.328 2.115-6.328 6.284 0 4.141 2.122 6.242 6.308 6.242 1.749 0 3.011-.295 3.973-.93.874-.576 1.5-1.442 1.914-2.646 0-.011.013-.039.023-.073a.171.171 0 00-.084-.204.169.169 0 00-.077-.02h-2.869a.265.265 0 00-.233.142c-.167.309-.75 1.015-2.586 1.015-1.928 0-2.84-.63-3.108-2.168h9.292l.02-.347c.15-2.631-.317-4.484-1.428-5.664zm-7.92 3.403c.215-1.63 1.133-2.298 3.123-2.298 1.956 0 2.848.669 3.045 2.298H69.98zM90.101 7.27c-.9-.767-2.204-1.042-3.098-1.042-4.2 0-6.328 2.07-6.328 6.156 0 2.065.553 3.647 1.643 4.705 1.07 1.033 2.645 1.558 4.687 1.558 1.182 0 2.287-.407 3.08-1.125 0 .885-.015 2.084-.688 2.895-.466.563-1.262.848-2.371.848-1.169 0-2.638-.292-3.006-1.684l-.02-.076a.266.266 0 00-.255-.198h-2.879a.17.17 0 00-.168.145.17.17 0 00.007.08l.089.262c.13.385.527 1.56 1.543 2.542C83.48 23.44 85.055 24 87.02 24c5.431 0 6.258-3.901 6.267-6.228V6.52a.19.19 0 00-.189-.19h-2.065a.936.936 0 00-.936.94m-3.091 8.661c-2.778 0-3.077-2.462-3.077-3.526 0-2.443.932-3.485 3.117-3.485 2.854 0 3.076 2.652 3.076 3.464 0 2.487-.932 3.547-3.117 3.547m13.939-9.811c-2.086 0-3.684.522-4.736 1.552-1.072 1.042-1.616 2.628-1.616 4.711s.544 3.668 1.616 4.711c1.056 1.03 2.65 1.552 4.736 1.552 4.199 0 6.328-2.107 6.328-6.263s-2.129-6.262-6.328-6.262zm0 9.81c-2.38 0-3.182-.894-3.182-3.547 0-1.355.203-2.201.66-2.747.473-.568 1.275-.827 2.526-.827 2.361 0 3.16.9 3.16 3.57 0 2.652-.799 3.547-3.16 3.547" fill="#232323"/><path d="M10.315 10.333h1.816a1.709 1.709 0 001.615-1.145l.669-1.914a1.29 1.29 0 00-.621-1.566 1.279 1.279 0 00-.588-.143s-3.144.004-3.168.006a7.328 7.328 0 00-4.196 1.55 7.362 7.362 0 00-2.521 3.702L.015 21.147a.31.31 0 00.219.394 4.837 4.837 0 003.16-.284 4.855 4.855 0 002.31-2.184c.056-.11.158-.339.158-.339l.085-.212c.026-.07.05-.14.073-.21l.023-.07S8.018 12.09 8.02 12.09a2.386 2.386 0 012.295-1.755M5.216 6.18a7.964 7.964 0 014.952-1.719h.114a.24.24 0 00.232-.167L11.742.47a.244.244 0 00-.169-.309 4.838 4.838 0 00-3.566.435 4.86 4.86 0 00-2.29 2.776L4.89 5.95a.21.21 0 00.205.273.208.208 0 00.123-.045" fill="#11BC56"/><path d="M22.454.145a4.831 4.831 0 00-3.161.283 4.849 4.849 0 00-2.308 2.184c-.058.11-.159.34-.159.34l-.085.212a3.99 3.99 0 00-.074.21l-.022.07s-1.974 6.15-1.977 6.15a2.374 2.374 0 01-2.294 1.755h-1.818a1.708 1.708 0 00-1.614 1.153l-.669 1.913a1.288 1.288 0 00.621 1.566c.182.094.384.144.588.143 0 0 3.145 0 3.168-.006a7.326 7.326 0 004.196-1.55 7.36 7.36 0 002.519-3.705L22.671.543a.309.309 0 00-.22-.393m-4.978 15.353a7.964 7.964 0 01-4.952 1.717h-.114a.243.243 0 00-.233.169l-1.228 3.822a.242.242 0 00.081.265c.026.02.056.035.087.044a4.84 4.84 0 003.566-.436 4.862 4.862 0 002.29-2.775l.828-2.577a.21.21 0 00-.206-.273.208.208 0 00-.123.045" fill="#11BC56"/></g><defs><clipPath id="clip0_1538_13005"><path fill="#fff" d="M0 0h107.272v24.001H0z"/></clipPath></defs></svg>