<svg width="102" height="20" viewBox="0 0 102 20" fill="none" xmlns="http://www.w3.org/2000/svg">
<path d="M31.4983 2.80664C30.1923 2.80664 28.9398 3.31867 28.0163 4.2301C27.0928 5.14153 26.574 6.37769 26.574 7.66664V14.0833H28.6883V7.66664C28.7135 6.94818 29.0205 6.26747 29.5444 5.76803C30.0683 5.26859 30.7682 4.98944 31.4967 4.98944C32.2251 4.98944 32.925 5.26859 33.4489 5.76803C33.9728 6.26747 34.2798 6.94818 34.305 7.66664V14.0833H36.4193V7.66664C36.4198 7.02857 36.2928 6.39667 36.0457 5.80705C35.7986 5.21743 35.4362 4.68164 34.9792 4.2303C34.5222 3.77897 33.9796 3.42093 33.3823 3.17665C32.785 2.93237 32.1449 2.80664 31.4983 2.80664Z" fill="#24282D"/>
<path d="M86.3117 14.3633C87.6177 14.3633 88.8703 13.8513 89.7938 12.9399C90.7173 12.0284 91.2361 10.7923 91.2361 9.50334V3.08667H89.1184V9.50334C89.1184 10.238 88.8227 10.9425 88.2963 11.462C87.77 11.9815 87.0561 12.2733 86.3117 12.2733C85.5673 12.2733 84.8534 11.9815 84.3271 11.462C83.8007 10.9425 83.505 10.238 83.505 9.50334V3.08667H81.3975V9.50334C81.3975 10.7906 81.9149 12.0252 82.8362 12.9363C83.7575 13.8475 85.0074 14.3607 86.3117 14.3633Z" fill="#24282D"/>
<path d="M1.26318 8.11003C1.96081 8.11003 2.52636 7.55188 2.52636 6.86337C2.52636 6.17485 1.96081 5.6167 1.26318 5.6167C0.565544 5.6167 0 6.17485 0 6.86337C0 7.55188 0.565544 8.11003 1.26318 8.11003Z" fill="#1F4EE5"/>
<path d="M8.48435 2.80664C7.83784 2.80664 7.19765 2.93237 6.60039 3.17665C6.00313 3.42093 5.46049 3.77897 5.00349 4.2303C4.54649 4.68164 4.18408 5.21743 3.93698 5.80705C3.68987 6.39667 3.56292 7.02857 3.56336 7.66664V11.1333C3.06849 10.708 2.67026 10.1844 2.39475 9.59664H0.131836C0.398176 10.4636 0.839484 11.2685 1.42921 11.9628C2.01893 12.6571 2.74487 13.2264 3.56336 13.6366V19.97H5.67766V14.29C6.63876 14.4251 7.61807 14.3549 8.54925 14.084C9.48044 13.8131 10.3418 13.3478 11.0749 12.7197C11.808 12.0917 12.3958 11.3154 12.7985 10.4436C13.2011 9.57179 13.4092 8.62475 13.4087 7.66664C13.4087 7.02842 13.2814 6.39644 13.0339 5.8068C12.7864 5.21716 12.4237 4.68139 11.9664 4.2301C11.5091 3.77881 10.9663 3.42082 10.3688 3.17659C9.77138 2.93235 9.13103 2.80664 8.48435 2.80664ZM10.8486 9.59664C10.4083 10.5419 9.65606 11.3117 8.71496 11.7803C7.77386 12.249 6.69951 12.3887 5.66753 12.1766V7.66664C5.69278 6.94818 5.99972 6.26748 6.52363 5.76803C7.04755 5.26859 7.7475 4.98944 8.47591 4.98944C9.20432 4.98944 9.90427 5.26859 10.4282 5.76803C10.9521 6.26748 11.259 6.94818 11.2843 7.66664C11.2867 8.3329 11.1414 8.99161 10.8587 9.59664H10.8486Z" fill="#24282D"/>
<path d="M24.615 3.08667H22.4973V14.0833H24.615V3.08667Z" fill="#24282D"/>
<path d="M42.2725 0H40.1582V3.08667H37.7129V4.89667H40.1582V10.6267C40.1582 11.0767 40.1785 11.52 40.2156 11.96C40.2491 12.3818 40.3784 12.7908 40.5939 13.1567C40.8292 13.5357 41.1721 13.8382 41.5801 14.0267C42.1767 14.2784 42.8235 14.3924 43.4715 14.36C43.7826 14.3528 44.093 14.325 44.4003 14.2767C44.7414 14.242 45.0726 14.1436 45.3764 13.9867V12.0867C45.1506 12.2144 44.9036 12.3013 44.6469 12.3433C44.3916 12.389 44.1328 12.4124 43.8734 12.4133C43.5484 12.4348 43.2244 12.358 42.9446 12.1933C42.7343 12.0491 42.5712 11.8476 42.4751 11.6133C42.3673 11.3548 42.3067 11.0794 42.2961 10.8C42.2961 10.5 42.2725 10.1933 42.2725 9.88333V4.88333H45.3764V3.08667H42.2725V0Z" fill="#24282D"/>
<path d="M101.517 9.60666C101.36 9.26009 101.13 8.95086 100.841 8.7C100.533 8.44352 100.184 8.2396 99.8079 8.09666C99.3903 7.93836 98.9627 7.80697 98.5279 7.70333L97.6801 7.54C97.361 7.48216 97.0495 7.38937 96.7513 7.26333C96.4728 7.14686 96.2177 6.98202 95.9981 6.77666C95.893 6.67361 95.8106 6.55026 95.7559 6.41433C95.7013 6.2784 95.6757 6.13281 95.6806 5.98666C95.6758 5.79784 95.7253 5.61153 95.8233 5.4493C95.9213 5.28707 96.0639 5.15557 96.2345 5.07C96.6332 4.85317 97.0832 4.74502 97.5382 4.75666C98.0087 4.7412 98.475 4.84932 98.8892 5.07C99.2472 5.2667 99.5627 5.53053 99.8181 5.84666L101.466 4.61666C101.085 3.98861 100.506 3.50057 99.8181 3.22666C99.1327 2.94729 98.398 2.80455 97.6565 2.80666C97.1358 2.80718 96.6176 2.87783 96.1163 3.01666C95.6329 3.14742 95.1758 3.35941 94.7653 3.64333C94.3678 3.91939 94.0387 4.28063 93.8027 4.7C93.5519 5.1581 93.4262 5.67275 93.438 6.19333C93.4206 6.65399 93.518 7.11183 93.7217 7.52666C93.9009 7.87313 94.1573 8.17511 94.4715 8.41C94.802 8.64901 95.1676 8.83674 95.5557 8.96666C95.9725 9.10977 96.3963 9.23215 96.8256 9.33333C97.062 9.38 97.3322 9.44 97.6396 9.50666C97.9363 9.57583 98.2267 9.66949 98.5076 9.78666C98.7733 9.89651 99.0135 10.0587 99.2135 10.2633C99.3116 10.3648 99.3882 10.4845 99.4387 10.6157C99.4891 10.7468 99.5125 10.8865 99.5073 11.0267C99.512 11.2483 99.4419 11.4653 99.3081 11.6433C99.1686 11.8238 98.9926 11.9736 98.7913 12.0833C98.5632 12.206 98.317 12.2926 98.0618 12.34C97.7948 12.3927 97.5234 12.4195 97.2512 12.42C96.7059 12.4376 96.1669 12.3011 95.6975 12.0267C95.2808 11.7675 94.8945 11.4634 94.5458 11.12L92.9482 12.42C93.4113 13.0944 94.059 13.6251 94.816 13.95C95.5926 14.2439 96.4196 14.3865 97.2512 14.37C97.8004 14.3692 98.3477 14.3066 98.8825 14.1833C99.3988 14.0713 99.8899 13.8668 100.331 13.58C100.755 13.3023 101.108 12.9329 101.365 12.5C101.642 12.017 101.78 11.4682 101.763 10.9133C101.778 10.4653 101.694 10.0195 101.517 9.60666Z" fill="#24282D"/>
<path d="M73.575 2.80664C72.4166 2.80598 71.2839 3.14441 70.3204 3.77913C69.3568 4.41384 68.6057 5.31632 68.1619 6.37242C67.7181 7.42852 67.6016 8.59079 67.8272 9.71222C68.0528 10.8336 68.6103 11.8639 69.4292 12.6725C70.2482 13.4812 71.2917 14.032 72.4279 14.2553C73.564 14.4786 74.7417 14.3644 75.8121 13.927C76.8824 13.4896 77.7973 12.7488 78.441 11.7982C79.0847 10.8476 79.4282 9.72996 79.4282 8.58664C79.4282 7.05427 78.8117 5.58461 77.7141 4.50074C76.6165 3.41688 75.1277 2.80753 73.575 2.80664ZM73.575 12.2733C72.8354 12.2733 72.1124 12.0568 71.4975 11.6512C70.8825 11.2456 70.4033 10.6691 70.1204 9.99464C69.8375 9.32019 69.7637 8.57808 69.9082 7.8622C70.0528 7.14632 70.4092 6.48883 70.9324 5.9729C71.4557 5.45698 72.1222 5.10581 72.8477 4.9638C73.5732 4.8218 74.325 4.89535 75.0082 5.17515C75.6913 5.45495 76.275 5.92842 76.6854 6.53568C77.0959 7.14294 77.3146 7.85669 77.3139 8.58664C77.313 9.56471 76.9187 10.5024 76.2176 11.1937C75.5165 11.885 74.5661 12.2733 73.575 12.2733Z" fill="#24282D"/>
<path d="M52.9691 2.80665C52.0099 2.80456 51.0649 3.03501 50.2171 3.47776C49.3692 3.92051 48.6446 4.56201 48.1068 5.34588C47.569 6.12974 47.2345 7.03198 47.1327 7.9733C47.0309 8.91462 47.1649 9.86621 47.523 10.7444C47.8811 11.6227 48.4523 12.4006 49.1864 13.01C49.9204 13.6194 50.7949 14.0414 51.733 14.2392C52.671 14.4369 53.6439 14.4042 54.5662 14.1439C55.4884 13.8837 56.3318 13.4039 57.0221 12.7467L55.6711 11.1267C55.2132 11.6067 54.6326 11.956 53.9904 12.1378C53.3482 12.3196 52.6682 12.3271 52.0221 12.1596C51.3759 11.9921 50.7875 11.6557 50.3188 11.1859C49.8501 10.7161 49.5184 10.1302 49.3586 9.48999H58.7446C58.8837 8.66543 58.8382 7.82083 58.6113 7.01549C58.3843 6.21016 57.9815 5.46361 57.4311 4.82827C56.8807 4.19294 56.1961 3.68423 55.4252 3.33786C54.6544 2.9915 53.8161 2.81587 52.9691 2.82332V2.80665ZM49.3586 7.66665C49.5537 6.86614 50.0161 6.15373 50.6714 5.64414C51.3266 5.13455 52.1366 4.85744 52.9708 4.85744C53.8051 4.85744 54.6151 5.13455 55.2703 5.64414C55.9256 6.15373 56.388 6.86614 56.5831 7.66665H49.3586Z" fill="#24282D"/>
<path d="M19.7987 2.80666C19.1509 2.8049 18.5091 2.92932 17.9101 3.17277C17.3111 3.41622 16.7666 3.77393 16.3079 4.2254C15.8492 4.67686 15.4853 5.21322 15.237 5.80373C14.9887 6.39425 14.8608 7.02731 14.8608 7.66666V14.0833H16.9785V7.66666C16.9794 6.93228 17.2754 6.22823 17.8016 5.70895C18.3277 5.18966 19.0411 4.89754 19.7852 4.89666C20.0741 4.89812 20.3611 4.94308 20.6363 5.02999V2.88333C20.36 2.83326 20.0797 2.8076 19.7987 2.80666Z" fill="#24282D"/>
<path d="M65.432 2.80664C64.7855 2.80664 64.1453 2.93237 63.548 3.17665C62.9508 3.42093 62.4081 3.77897 61.9511 4.2303C61.4941 4.68164 61.1317 5.21743 60.8846 5.80705C60.6375 6.39667 60.5105 7.02857 60.511 7.66664V14.0833H62.6253V7.66664C62.6243 7.23067 62.7278 6.80066 62.9274 6.41174C63.127 6.02282 63.4171 5.68603 63.7738 5.4289C64.1305 5.17176 64.5438 5.00157 64.9799 4.93224C65.4161 4.8629 65.8626 4.8964 66.2831 5.02997V2.88331C66.0023 2.83245 65.7174 2.80679 65.432 2.80664Z" fill="#24282D"/>
</svg>
